<svg width="100" height="100" viewBox="0 0 100 100" fill="none" xmlns="http://www.w3.org/2000/svg">
<g clip-path="url(#clip0_23_309)">
<rect width="100" height="100" rx="5" fill="#6D6D6D"/>
<path d="M15 85L0 100L-3.49691e-07 92L15 85Z" fill="#8E8E8E"/>
<path d="M15 85L0 100H8L15 85Z" fill="#535353"/>
<path d="M85 85L100 100L100 92L85 85Z" fill="#8E8E8E"/>
<path d="M85 85L100 100H92L85 85Z" fill="#535353"/>
<path d="M15 15L0 -6.55671e-07L-3.49691e-07 8L15 15Z" fill="#8E8E8E"/>
<path d="M15 15L0 0H8L15 15Z" fill="#535353"/>
<path d="M85 15L100 -6.55671e-07L100 8L85 15Z" fill="#8E8E8E"/>
<path d="M85 15L100 0H92L85 15Z" fill="#535353"/>
<rect x="15" y="15" width="70" height="70" fill="#C8C8C8"/>
<path d="M85 15L15 85H85V15Z" fill="#B5B5B5"/>
</g>
<defs>
<clipPath id="clip0_23_309">
<rect width="100" height="100" rx="5" fill="white"/>
</clipPath>
</defs>
</svg>
