<svg width="170" height="42" viewBox="0 0 170 42" fill="none" xmlns="http://www.w3.org/2000/svg">
<g clip-path="url(#clip0_175_6)">
<path d="M0 13.0009L6.77729 12.9897C6.82066 13.4357 7.00862 13.759 7.34115 13.9598C7.68093 14.153 8.22672 14.2496 8.97855 14.2496C9.60748 14.2496 10.081 14.179 10.3991 14.0379C10.7243 13.8891 10.887 13.6699 10.887 13.38C10.887 12.8745 10.0448 12.5438 8.36046 12.3877C8.02792 12.3504 7.7749 12.3244 7.6014 12.3096C7.58695 12.3096 7.57248 12.3096 7.55803 12.3096C4.83988 12.0345 3.0037 11.6777 2.04945 11.2392C1.49281 10.9864 1.06268 10.5887 0.759057 10.0461C0.462663 9.50345 0.314467 8.86423 0.314467 8.12828C0.314467 6.64912 0.972312 5.56751 2.28801 4.88369C3.6037 4.19982 5.70015 3.85789 8.57733 3.85789C11.2955 3.85789 13.316 4.20725 14.6389 4.90598C15.9691 5.60467 16.6775 6.68628 16.7643 8.1506H10.3774C10.3413 7.71947 10.1461 7.40728 9.79179 7.21403C9.44483 7.02078 8.88457 6.92416 8.11105 6.92416C7.45321 6.92416 6.96885 6.99847 6.658 7.14709C6.35438 7.28834 6.20257 7.51138 6.20257 7.81609C6.20257 8.30669 6.92548 8.61151 8.3713 8.73045C8.67492 8.76013 8.90626 8.78244 9.0653 8.79729C9.18096 8.80476 9.36169 8.8196 9.60748 8.84192C12.5208 9.10948 14.2197 9.32883 14.704 9.49976C15.6583 9.84911 16.3305 10.2802 16.7209 10.7931C17.1113 11.2986 17.3064 11.9937 17.3064 12.8783C17.3064 14.5135 16.6052 15.6954 15.2028 16.4239C13.8076 17.1524 11.516 17.5166 8.32793 17.5166C5.49412 17.5166 3.41214 17.1561 2.08198 16.4351C0.759057 15.7066 0.0650626 14.5618 0 13.0009ZM30.8177 11.1276C30.2393 11.425 29.249 11.622 27.8465 11.7187C27.4417 11.7409 27.1308 11.7632 26.9139 11.7855C26.0971 11.8598 25.5404 11.9825 25.2441 12.1535C24.9549 12.3244 24.8102 12.5883 24.8102 12.9451C24.8102 13.3465 24.9837 13.6587 25.3308 13.8817C25.685 14.0972 26.1839 14.205 26.8272 14.205C28.0489 14.205 29.0249 13.9523 29.755 13.4469C30.4851 12.9414 30.8502 12.2724 30.8502 11.4398C30.8502 11.3507 30.8465 11.2875 30.8394 11.2503C30.8394 11.2057 30.8321 11.1648 30.8177 11.1276ZM30.8394 15.3312C30.1454 16.0819 29.3068 16.632 28.3236 16.9814C27.3477 17.3233 26.1079 17.4943 24.6043 17.4943C22.5729 17.4943 21.0475 17.1449 20.0282 16.4462C19.009 15.7474 18.4993 14.6957 18.4993 13.2908C18.4993 12.83 18.5571 12.4062 18.6728 12.0197C18.7885 11.6257 18.9511 11.2875 19.1608 11.005C19.5872 10.4624 20.1547 10.061 20.8632 9.80079C21.5789 9.53323 22.9235 9.33251 24.897 9.19873C25.5477 9.1541 26.3935 9.11326 27.4344 9.07611C29.5309 8.98685 30.5791 8.68582 30.5791 8.17291C30.5791 7.82357 30.3586 7.54485 29.9177 7.33665C29.4767 7.12109 28.8767 7.01331 28.1176 7.01331C27.1344 7.01331 26.4332 7.10993 26.0139 7.30318C25.5947 7.49654 25.3489 7.82725 25.2766 8.29553H19.5402C19.6559 6.74206 20.3608 5.63077 21.6548 4.96174C22.956 4.2853 25.0958 3.94709 28.0742 3.94709C29.7008 3.94709 31.0707 4.06602 32.1839 4.30389C33.2972 4.53432 34.1394 4.87997 34.7106 5.34083C35.3322 5.83886 35.7732 6.44093 36.0334 7.14709C36.2938 7.84588 36.4239 8.84939 36.4239 10.1576V15.0971C36.4239 15.5728 36.4636 15.9408 36.5431 16.2009C36.6299 16.4536 36.7745 16.6543 36.9768 16.803V17.0818H31.1973C31.096 16.829 31.0129 16.5577 30.9478 16.2678C30.89 15.9705 30.8538 15.6583 30.8394 15.3312ZM39.5251 17.0818V4.29274H45.1855V17.0818H39.5251ZM39.5251 3.24463V0H45.1855V3.24463H39.5251ZM48.2977 17.0818V4.29274H53.8496V5.61962C54.5942 5.08438 55.3677 4.69042 56.1701 4.43769C56.9725 4.17752 57.8365 4.04744 58.7618 4.04744C60.5835 4.04744 61.9137 4.52317 62.7522 5.47464C63.5981 6.42608 64.0209 7.93503 64.0209 10.0015V17.0818H58.469V11.072C58.469 10.1205 58.3208 9.46629 58.0244 9.10948C57.728 8.74529 57.2111 8.5632 56.4737 8.5632C55.6568 8.5632 55.0135 8.76392 54.5436 9.16526C54.081 9.56671 53.8496 10.1205 53.8496 10.8266V17.0818H48.2977ZM75.2984 17.0594C74.814 17.1412 74.3441 17.2007 73.8887 17.2379C73.4332 17.2825 72.9923 17.3048 72.5658 17.3048C71.879 17.3048 71.2609 17.2602 70.7114 17.1709C70.162 17.0892 69.6705 16.9591 69.2368 16.7807C68.6223 16.5205 68.1886 16.1414 67.9355 15.6434C67.6825 15.1454 67.556 14.3314 67.556 13.2016V8.19522H65.5716V4.61609H67.556V0.434843H73.1513V4.61609H75.1466V8.19522H73.1513V10.8489C73.1513 12.1126 73.2417 12.8783 73.4224 13.1458C73.6031 13.4134 73.9646 13.5472 74.5068 13.5472H75.2984V17.0594ZM94.2206 11.4622C94.0181 13.4766 93.1723 14.9893 91.6831 16.0003C90.2012 17.0111 88.0866 17.5166 85.3396 17.5166C82.4986 17.5166 80.3009 16.922 78.7466 15.7326C77.1996 14.5433 76.4261 12.8633 76.4261 10.6928C76.4261 8.52973 77.1996 6.84984 78.7466 5.65298C80.3009 4.45627 82.4986 3.85789 85.3396 3.85789C87.9782 3.85789 90.0349 4.32246 91.5096 5.25163C92.9843 6.18084 93.8519 7.55969 94.1121 9.3883H88.1589C87.9348 8.80108 87.5986 8.36247 87.1505 8.0726C86.7022 7.77525 86.142 7.62653 85.4697 7.62653C84.4793 7.62653 83.7022 7.89788 83.1383 8.44057C82.5744 8.97569 82.2925 9.71901 82.2925 10.6705C82.2925 11.5922 82.5672 12.3244 83.1166 12.8671C83.666 13.4097 84.407 13.681 85.3396 13.681C86.1131 13.681 86.7637 13.484 87.2915 13.09C87.8264 12.6887 88.1589 12.146 88.2891 11.4622H94.2206ZM101.464 10.6928C101.464 11.5699 101.721 12.2687 102.234 12.789C102.755 13.3094 103.452 13.5695 104.327 13.5695C105.201 13.5695 105.895 13.3094 106.409 12.789C106.929 12.2687 107.189 11.5699 107.189 10.6928C107.189 9.80827 106.929 9.10948 106.409 8.59667C105.895 8.07628 105.201 7.81609 104.327 7.81609C103.452 7.81609 102.755 8.07628 102.234 8.59667C101.721 9.10948 101.464 9.80827 101.464 10.6928ZM95.5977 10.6928C95.5977 8.52225 96.3603 6.84237 97.8857 5.65298C99.4111 4.45627 101.565 3.85789 104.349 3.85789C107.139 3.85789 109.29 4.45255 110.801 5.64193C112.319 6.83121 113.077 8.51489 113.077 10.6928C113.077 12.8633 112.319 14.5433 110.801 15.7326C109.29 16.922 107.139 17.5166 104.349 17.5166C101.565 17.5166 99.4111 16.922 97.8857 15.7326C96.3603 14.5433 95.5977 12.8633 95.5977 10.6928ZM125.971 10.6928C125.971 9.83058 125.71 9.14295 125.19 8.63004C124.677 8.11723 123.99 7.86072 123.129 7.86072C122.27 7.86072 121.579 8.11723 121.059 8.63004C120.546 9.14295 120.289 9.83058 120.289 10.6928C120.289 11.5476 120.546 12.2353 121.059 12.7555C121.579 13.2684 122.27 13.525 123.129 13.525C123.99 13.525 124.677 13.2684 125.19 12.7555C125.71 12.2353 125.971 11.5476 125.971 10.6928ZM131.522 0.457147V17.0818H126.242L126.198 15.8218C125.526 16.3496 124.782 16.7473 123.965 17.0148C123.148 17.275 122.248 17.4051 121.264 17.4051C119.189 17.4051 117.534 16.7956 116.299 15.5765C115.062 14.3501 114.444 12.7222 114.444 10.6928C114.444 8.63383 115.065 6.99847 116.309 5.78687C117.56 4.5752 119.241 3.96938 121.351 3.96938C122.248 3.96938 123.072 4.08461 123.823 4.31503C124.583 4.53804 125.299 4.87997 125.971 5.34083V0.457147H131.522ZM139.374 9.27673H145.967C145.887 8.57057 145.576 8.02429 145.034 7.63768C144.492 7.25118 143.765 7.05794 142.854 7.05794C141.871 7.05794 141.08 7.2475 140.479 7.62653C139.886 8.00566 139.518 8.55572 139.374 9.27673ZM151.562 13.1793C151.142 14.599 150.17 15.6769 148.645 16.4128C147.119 17.1487 145.089 17.5166 142.551 17.5166C139.732 17.5166 137.552 16.922 136.012 15.7326C134.472 14.5433 133.703 12.8633 133.703 10.6928C133.703 8.51489 134.472 6.83121 136.012 5.64193C137.552 4.45255 139.732 3.85789 142.551 3.85789C145.543 3.85789 147.809 4.5306 149.35 5.87602C150.897 7.21403 151.671 9.18389 151.671 11.7855V12.0085H139.655C139.655 12.6999 139.938 13.235 140.502 13.6141C141.065 13.9932 141.857 14.1828 142.876 14.1828C143.548 14.1828 144.109 14.0972 144.556 13.9263C145.005 13.7554 145.327 13.5063 145.522 13.1793H151.562Z" fill="white"/>
<path d="M23.9738 31.5495C23.9738 32.4043 24.2341 33.0919 24.7546 33.6122C25.2751 34.1251 25.9618 34.3816 26.8149 34.3816C27.6824 34.3816 28.3727 34.1251 28.886 33.6122C29.4065 33.0919 29.6667 32.4043 29.6667 31.5495C29.6667 30.6873 29.4065 29.9996 28.886 29.4867C28.3727 28.9738 27.6824 28.7174 26.8149 28.7174C25.9618 28.7174 25.2751 28.9738 24.7546 29.4867C24.2341 29.9996 23.9738 30.6873 23.9738 31.5495ZM18.4219 37.9384V21.3138H23.9738V26.1975C24.6461 25.7367 25.3582 25.3947 26.11 25.1718C26.8691 24.9412 27.6968 24.8261 28.5932 24.8261C30.7041 24.8261 32.3813 25.4318 33.6247 26.6435C34.8753 27.8551 35.5007 29.4905 35.5007 31.5495C35.5007 33.5787 34.8826 35.2067 33.6463 36.4332C32.4102 37.6523 30.7547 38.2618 28.6799 38.2618C27.7041 38.2618 26.8076 38.1317 25.9907 37.8715C25.1739 37.6039 24.4293 37.2063 23.7569 36.6785L23.7136 37.9384H18.4219ZM42.7225 31.5495C42.7225 32.4266 42.9792 33.1254 43.4924 33.6457C44.0129 34.1661 44.7106 34.4262 45.5853 34.4262C46.46 34.4262 47.154 34.1661 47.6672 33.6457C48.1877 33.1254 48.448 32.4266 48.448 31.5495C48.448 30.665 48.1877 29.9662 47.6672 29.4534C47.154 28.933 46.46 28.6728 45.5853 28.6728C44.7106 28.6728 44.0129 28.933 43.4924 29.4534C42.9792 29.9662 42.7225 30.665 42.7225 31.5495ZM36.8561 31.5495C36.8561 29.3789 37.6188 27.6991 39.1441 26.5097C40.6694 25.3129 42.8237 24.7145 45.607 24.7145C48.3973 24.7145 50.548 25.3092 52.0589 26.4986C53.577 27.6879 54.3361 29.3716 54.3361 31.5495C54.3361 33.72 53.577 35.4 52.0589 36.5893C50.548 37.7787 48.3973 38.3733 45.607 38.3733C42.8237 38.3733 40.6694 37.7787 39.1441 36.5893C37.6188 35.4 36.8561 33.72 36.8561 31.5495ZM61.5471 31.5495C61.5471 32.4266 61.8037 33.1254 62.317 33.6457C62.8375 34.1661 63.5351 34.4262 64.4098 34.4262C65.2845 34.4262 65.9785 34.1661 66.4918 33.6457C67.0123 33.1254 67.2725 32.4266 67.2725 31.5495C67.2725 30.665 67.0123 29.9662 66.4918 29.4534C65.9785 28.933 65.2845 28.6728 64.4098 28.6728C63.5351 28.6728 62.8375 28.933 62.317 29.4534C61.8037 29.9662 61.5471 30.665 61.5471 31.5495ZM55.6807 31.5495C55.6807 29.3789 56.4433 27.6991 57.9687 26.5097C59.494 25.3129 61.6483 24.7145 64.4315 24.7145C67.222 24.7145 69.3726 25.3092 70.8835 26.4986C72.4016 27.6879 73.1606 29.3716 73.1606 31.5495C73.1606 33.72 72.4016 35.4 70.8835 36.5893C69.3726 37.7787 67.222 38.3733 64.4315 38.3733C61.6483 38.3733 59.494 37.7787 57.9687 36.5893C56.4433 35.4 55.6807 33.72 55.6807 31.5495ZM83.7006 37.9161C83.2163 37.9979 82.7464 38.0574 82.291 38.0945C81.8356 38.1392 81.3946 38.1615 80.9681 38.1615C80.2814 38.1615 79.6632 38.1168 79.1138 38.0276C78.5644 37.9459 78.0729 37.8158 77.639 37.6374C77.0247 37.3772 76.5908 36.9981 76.3379 36.5001C76.0848 36.002 75.9583 35.1881 75.9583 34.0583V29.0519H73.9739V25.4728H75.9583V21.2915H81.5536V25.4728H83.5488V29.0519H81.5536V31.7056C81.5536 32.9693 81.644 33.7349 81.8247 34.0025C82.0055 34.2701 82.3669 34.4038 82.909 34.4038H83.7006V37.9161ZM102.623 32.3188C102.42 34.3333 101.575 35.846 100.085 36.8569C98.6035 37.8678 96.489 38.3733 93.7419 38.3733C90.9008 38.3733 88.7033 37.7787 87.149 36.5893C85.6019 35.4 84.8284 33.72 84.8284 31.5495C84.8284 29.3864 85.6019 27.7065 87.149 26.5097C88.7033 25.3129 90.9008 24.7145 93.7419 24.7145C96.3806 24.7145 98.4372 25.1791 99.9119 26.1083C101.387 27.0375 102.254 28.4164 102.514 30.245H96.5613C96.3372 29.6578 96.001 29.2192 95.5528 28.9293C95.1046 28.6319 94.5444 28.4832 93.872 28.4832C92.8817 28.4832 92.1045 28.7546 91.5406 29.2973C90.9768 29.8324 90.6949 30.5757 90.6949 31.5272C90.6949 32.4489 90.9695 33.1811 91.519 33.7238C92.0684 34.2664 92.8094 34.5377 93.7419 34.5377C94.5154 34.5377 95.166 34.3407 95.6938 33.9467C96.2288 33.5454 96.5613 33.0027 96.6914 32.3188H102.623ZM116.102 31.9843C115.523 32.2817 114.533 32.4786 113.13 32.5753C112.726 32.5976 112.415 32.6199 112.198 32.6422C111.381 32.7165 110.824 32.8392 110.528 33.0102C110.239 33.1811 110.094 33.445 110.094 33.8018C110.094 34.2032 110.268 34.5154 110.615 34.7383C110.969 34.9539 111.468 35.0617 112.111 35.0617C113.333 35.0617 114.309 34.809 115.039 34.3035C115.769 33.7981 116.134 33.1291 116.134 32.2965C116.134 32.2074 116.13 32.1442 116.123 32.107C116.123 32.0624 116.116 32.0215 116.102 31.9843ZM116.123 36.1879C115.429 36.9386 114.591 37.4887 113.608 37.8381C112.632 38.18 111.392 38.3509 109.888 38.3509C107.857 38.3509 106.331 38.0016 105.312 37.3029C104.293 36.6041 103.783 35.5523 103.783 34.1474C103.783 33.6865 103.841 33.2629 103.957 32.8764C104.072 32.4824 104.235 32.1442 104.445 31.8617C104.871 31.3191 105.439 30.9177 106.147 30.6575C106.863 30.3899 108.207 30.1892 110.181 30.0554C110.832 30.0108 111.677 29.9699 112.718 29.9328C114.815 29.8435 115.863 29.5425 115.863 29.0296C115.863 28.6802 115.642 28.4015 115.202 28.1933C114.761 27.9778 114.161 27.87 113.401 27.87C112.418 27.87 111.717 27.9666 111.298 28.1599C110.879 28.3532 110.633 28.6839 110.56 29.1522H104.824C104.94 27.5986 105.645 26.4875 106.939 25.8184C108.24 25.142 110.38 24.8038 113.358 24.8038C114.985 24.8038 116.355 24.9227 117.468 25.1606C118.581 25.391 119.423 25.7367 119.994 26.1975C120.617 26.6955 121.057 27.2976 121.318 28.0038C121.578 28.7026 121.708 29.7061 121.708 31.0143V35.9537C121.708 36.4295 121.748 36.7975 121.827 37.0576C121.914 37.3103 122.058 37.511 122.261 37.6597V37.9384H116.481C116.38 37.6857 116.297 37.4144 116.232 37.1245C116.174 36.8271 116.138 36.515 116.123 36.1879ZM124.603 37.9384V25.1494H130.112V26.4763C130.849 25.9336 131.604 25.5359 132.378 25.2832C133.151 25.0305 133.986 24.9041 134.883 24.9041C135.887 24.9041 136.73 25.09 137.409 25.4616C138.089 25.8258 138.671 26.4057 139.155 27.201C139.972 26.413 140.828 25.8333 141.725 25.4616C142.622 25.09 143.616 24.9041 144.707 24.9041C146.464 24.9041 147.75 25.3798 148.567 26.3314C149.384 27.2828 149.792 28.7917 149.792 30.8582V37.9384H144.306V31.9286C144.306 30.992 144.161 30.3416 143.872 29.9773C143.583 29.6057 143.092 29.4199 142.398 29.4199C141.617 29.4199 141.006 29.6206 140.564 30.0219C140.124 30.4234 139.903 30.9771 139.903 31.6833V37.9384H134.514V31.9286C134.514 30.992 134.369 30.3416 134.081 29.9773C133.791 29.6057 133.296 29.4199 132.594 29.4199C131.821 29.4199 131.214 29.6206 130.773 30.0219C130.332 30.4234 130.112 30.9771 130.112 31.6833V37.9384H124.603ZM158.284 31.5495C158.284 32.4043 158.544 33.0919 159.065 33.6122C159.585 34.1251 160.271 34.3816 161.124 34.3816C161.992 34.3816 162.682 34.1251 163.196 33.6122C163.716 33.0919 163.976 32.4043 163.976 31.5495C163.976 30.6873 163.716 29.9996 163.196 29.4867C162.682 28.9738 161.992 28.7174 161.124 28.7174C160.271 28.7174 159.585 28.9738 159.065 29.4867C158.544 29.9996 158.284 30.6873 158.284 31.5495ZM152.731 42.0751V25.1494H158.024L158.067 26.387C158.725 25.8668 159.462 25.4765 160.279 25.2163C161.095 24.9562 161.999 24.8261 162.989 24.8261C165.064 24.8261 166.719 25.4393 167.956 26.6659C169.192 27.8848 169.81 29.5128 169.81 31.5495C169.81 33.6011 169.185 35.2327 167.934 36.4443C166.691 37.6559 165.014 38.2618 162.903 38.2618C162.007 38.2618 161.178 38.1503 160.42 37.9273C159.667 37.6969 158.956 37.3512 158.284 36.8903V42.0751H152.731Z" fill="white"/>
</g>
<defs>
<clipPath id="clip0_175_6">
<rect width="170" height="42" fill="white"/>
</clipPath>
</defs>
</svg>
