<svg width="266" height="30" viewBox="0 0 266 30" fill="none" xmlns="http://www.w3.org/2000/svg">
<path d="M0 22.1017L11.886 22.0827C11.9621 22.8409 12.2917 23.3905 12.8749 23.7318C13.4708 24.0603 14.428 24.2246 15.7466 24.2246C16.8496 24.2246 17.68 24.1045 18.238 23.8645C18.8083 23.6117 19.0936 23.239 19.0936 22.7462C19.0936 21.8868 17.6166 21.3245 14.6626 21.0592C14.0794 20.9958 13.6356 20.9516 13.3313 20.9264C13.306 20.9264 13.2806 20.9264 13.2553 20.9264C8.48819 20.4589 5.26789 19.8523 3.59432 19.1068C2.6181 18.677 1.86373 18.001 1.33123 17.0786C0.811419 16.156 0.551512 15.0693 0.551512 13.8182C0.551512 11.3036 1.70524 9.46484 4.01271 8.30233C6.32018 7.13975 9.99693 6.55846 15.0429 6.55846C19.8101 6.55846 23.3536 7.15238 25.6738 8.34023C28.0065 9.52801 29.249 11.3668 29.4013 13.8561H18.1999C18.1365 13.1232 17.7942 12.5925 17.1728 12.2639C16.5643 11.9354 15.5818 11.7712 14.2252 11.7712C13.0714 11.7712 12.222 11.8975 11.6768 12.1501C11.1443 12.3903 10.8781 12.7694 10.8781 13.2875C10.8781 14.1215 12.1459 14.6397 14.6816 14.8419C15.2141 14.8923 15.6198 14.9303 15.8987 14.9555C16.1016 14.9682 16.4185 14.9934 16.8496 15.0314C21.959 15.4862 24.9384 15.8591 25.788 16.1497C27.4615 16.7436 28.6404 17.4765 29.3252 18.3485C30.0099 19.2077 30.352 20.3894 30.352 21.8932C30.352 24.6732 29.1223 26.6824 26.6626 27.9208C24.2158 29.1593 20.1968 29.7784 14.6055 29.7784C9.6356 29.7784 5.98421 29.1655 3.65138 27.9398C1.33123 26.7014 0.114107 24.7553 0 22.1017ZM54.0481 18.9171C53.0338 19.4226 51.2968 19.7576 48.8372 19.9219C48.1273 19.9596 47.5821 19.9976 47.2017 20.0355C45.769 20.1618 44.7928 20.3705 44.2731 20.6611C43.7659 20.9516 43.5122 21.4002 43.5122 22.0068C43.5122 22.6893 43.8165 23.22 44.4251 23.599C45.0465 23.9655 45.9213 24.1487 47.0496 24.1487C49.1923 24.1487 50.9039 23.7191 52.1844 22.8598C53.4648 22.0006 54.1052 20.8633 54.1052 19.4479C54.1052 19.2963 54.0987 19.1889 54.0861 19.1256C54.0861 19.0499 54.0734 18.9803 54.0481 18.9171ZM54.0861 26.0633C52.8689 27.3395 51.3983 28.2746 49.6739 28.8687C47.9625 29.4499 45.7881 29.7404 43.151 29.7404C39.5883 29.7404 36.9132 29.1466 35.1255 27.9588C33.3379 26.7708 32.4441 24.9829 32.4441 22.5945C32.4441 21.8111 32.5455 21.0907 32.7484 20.4336C32.9512 19.7639 33.2365 19.1889 33.6042 18.7087C34.3521 17.7863 35.3474 17.1038 36.5899 16.6615C37.8451 16.2066 40.2032 15.8654 43.6645 15.638C44.8055 15.5621 46.289 15.4927 48.1146 15.4295C51.7913 15.2778 53.6296 14.766 53.6296 13.894C53.6296 13.3002 53.2429 12.8263 52.4697 12.4724C51.6963 12.1059 50.6439 11.9227 49.3127 11.9227C47.5884 11.9227 46.3586 12.087 45.6233 12.4155C44.8879 12.7442 44.4569 13.3064 44.3301 14.1025H34.2697C34.4725 11.4616 35.7088 9.57238 37.9781 8.43501C40.2603 7.28506 44.0131 6.7101 49.2366 6.7101C52.0893 6.7101 54.4919 6.91228 56.4442 7.31666C58.3967 7.70841 59.8737 8.29601 60.8755 9.07949C61.9657 9.92614 62.7391 10.9497 63.1955 12.1501C63.652 13.3381 63.8802 15.0441 63.8802 17.2681V25.6652C63.8802 26.474 63.9498 27.0995 64.0893 27.5417C64.2416 27.9713 64.4951 28.3125 64.85 28.5654V29.0392H54.7138C54.5362 28.6096 54.3904 28.1483 54.2763 27.6555C54.1748 27.15 54.1114 26.6193 54.0861 26.0633ZM69.3191 29.0392V7.29771H79.2464V29.0392H69.3191ZM69.3191 5.51592V0H79.2464V5.51592H69.3191ZM84.7045 29.0392V7.29771H94.4415V9.55342C95.7474 8.64351 97.1039 7.97377 98.5112 7.54413C99.9185 7.10183 101.434 6.8807 103.056 6.8807C106.251 6.8807 108.584 7.68944 110.055 9.30695C111.538 10.9244 112.28 13.4897 112.28 17.0027V29.0392H102.543V18.8225C102.543 17.2049 102.283 16.0928 101.763 15.4862C101.243 14.8671 100.337 14.5575 99.0436 14.5575C97.611 14.5575 96.4827 14.8988 95.6587 15.5811C94.8472 16.2635 94.4415 17.2049 94.4415 18.4054V29.0392H84.7045ZM132.058 29.0013C131.209 29.1403 130.385 29.2414 129.586 29.3046C128.787 29.3804 128.014 29.4184 127.266 29.4184C126.061 29.4184 124.977 29.3425 124.014 29.1908C123.05 29.0519 122.188 28.8307 121.428 28.5274C120.35 28.0851 119.589 27.4406 119.145 26.594C118.702 25.7473 118.48 24.3636 118.48 22.4429V13.932H115V7.8474H118.48V0.739238H128.293V7.8474H131.792V13.932H128.293V18.4433C128.293 20.5916 128.451 21.8932 128.768 22.3481C129.085 22.8029 129.719 23.0303 130.67 23.0303H132.058V29.0013ZM165.244 19.4858C164.889 22.9105 163.406 25.482 160.794 27.2006C158.195 28.9191 154.486 29.7784 149.669 29.7784C144.686 29.7784 140.832 28.7676 138.106 26.7456C135.393 24.7238 134.036 21.8678 134.036 18.178C134.036 14.5006 135.393 11.6448 138.106 9.61014C140.832 7.57571 144.686 6.55846 149.669 6.55846C154.296 6.55846 157.903 7.34824 160.49 8.92784C163.076 10.5075 164.597 12.8516 165.054 15.9602H154.613C154.22 14.9619 153.631 14.2163 152.845 13.7235C152.058 13.218 151.076 12.9652 149.897 12.9652C148.16 12.9652 146.797 13.4265 145.808 14.3491C144.819 15.2588 144.325 16.5224 144.325 18.14C144.325 19.707 144.807 20.9516 145.77 21.8742C146.734 22.7967 148.033 23.258 149.669 23.258C151.025 23.258 152.166 22.923 153.092 22.2532C154.03 21.5709 154.613 20.6484 154.841 19.4858H165.244ZM177.948 18.178C177.948 19.669 178.398 20.857 179.298 21.7415C180.212 22.6261 181.434 23.0683 182.969 23.0683C184.502 23.0683 185.719 22.6261 186.621 21.7415C187.533 20.857 187.989 19.669 187.989 18.178C187.989 16.6742 187.533 15.4862 186.621 14.6144C185.719 13.7298 184.502 13.2875 182.969 13.2875C181.434 13.2875 180.212 13.7298 179.298 14.6144C178.398 15.4862 177.948 16.6742 177.948 18.178ZM167.659 18.178C167.659 14.4879 168.997 11.6321 171.672 9.61014C174.347 7.57571 178.125 6.55846 183.007 6.55846C187.901 6.55846 191.673 7.56939 194.322 9.59135C196.985 11.6132 198.315 14.4754 198.315 18.178C198.315 21.8678 196.985 24.7238 194.322 26.7456C191.673 28.7676 187.901 29.7784 183.007 29.7784C178.125 29.7784 174.347 28.7676 171.672 26.7456C168.997 24.7238 167.659 21.8678 167.659 18.178ZM220.928 18.178C220.928 16.7121 220.47 15.5431 219.558 14.6712C218.659 13.7994 217.454 13.3633 215.944 13.3633C214.436 13.3633 213.225 13.7994 212.313 14.6712C211.413 15.5431 210.963 16.7121 210.963 18.178C210.963 19.6311 211.413 20.8001 212.313 21.6846C213.225 22.5565 214.436 22.9926 215.944 22.9926C217.454 22.9926 218.659 22.5565 219.558 21.6846C220.47 20.8001 220.928 19.6311 220.928 18.178ZM230.664 0.777155V29.0392H221.404L221.327 26.8973C220.147 27.7945 218.842 28.4705 217.409 28.9254C215.977 29.3677 214.399 29.5889 212.674 29.5889C209.035 29.5889 206.132 28.5527 203.965 26.4802C201.796 24.3953 200.712 21.6278 200.712 18.178C200.712 14.6776 201.801 11.8975 203.983 9.83775C206.176 7.77791 209.124 6.748 212.826 6.748C214.399 6.748 215.844 6.94388 217.162 7.33561C218.494 7.71472 219.749 8.29601 220.928 9.07949V0.777155H230.664ZM244.434 15.7706H255.997C255.857 14.5701 255.311 13.6414 254.361 12.9842C253.41 12.3271 252.135 11.9986 250.537 11.9986C248.814 11.9986 247.426 12.3208 246.372 12.9652C245.333 13.6097 244.687 14.5448 244.434 15.7706ZM265.81 22.405C265.074 24.8185 263.368 26.6509 260.693 27.9019C258.018 29.153 254.456 29.7784 250.006 29.7784C245.062 29.7784 241.238 28.7676 238.538 26.7456C235.838 24.7238 234.488 21.8678 234.488 18.178C234.488 14.4754 235.838 11.6132 238.538 9.59135C241.238 7.56939 245.062 6.55846 250.006 6.55846C255.254 6.55846 259.228 7.70207 261.93 9.9893C264.643 12.2639 266 15.6127 266 20.0355V20.4147H244.927C244.927 21.5899 245.423 22.4996 246.412 23.1441C247.399 23.7887 248.789 24.1109 250.577 24.1109C251.755 24.1109 252.738 23.9655 253.523 23.6749C254.309 23.3843 254.875 22.9609 255.216 22.405H265.81Z" fill="#3D364D"/>
</svg>
